<?xml version="1.0" encoding="UTF-8"?><svg xmlns="http://www.w3.org/2000/svg" xmlns:xlink="http://www.w3.org/1999/xlink" viewBox="0 0 492.51 103.49"><defs><style>.h{fill:url(#e);}.i{fill:url(#d);}.j{fill:url(#g);}.k{fill:url(#f);}.l{fill:url(#c);}</style><linearGradient id="c" x1="91.45" y1="5.86" x2="-8.21" y2="80.92" gradientTransform="matrix(1, 0, 0, 1, 0, 0)" gradientUnits="userSpaceOnUse"><stop offset="0" stop-color="#08f7a1"/><stop offset="1" stop-color="#007368"/></linearGradient><linearGradient id="d" x1="114.42" y1="36.37" x2="14.77" y2="111.42" xlink:href="#c"/><linearGradient id="e" x1="106.82" y1="26.27" x2="7.16" y2="101.32" xlink:href="#c"/><linearGradient id="f" x1="82.26" y1="-6.34" x2="-17.4" y2="68.71" xlink:href="#c"/><linearGradient id="g" x1="100.15" y1="17.42" x2=".5" y2="92.48" xlink:href="#c"/></defs><g id="a"/><g id="b"><g><g><path d="M140.43,51.36c-2.46,0-4.82-.32-7.07-.96-2.26-.64-4.05-1.42-5.37-2.34l2.64-5.23c1.32,.84,2.9,1.54,4.73,2.09,1.84,.55,3.67,.83,5.5,.83,2.17,0,3.73-.29,4.71-.88,.97-.59,1.46-1.38,1.46-2.37,0-.81-.33-1.42-.99-1.84-.66-.42-1.52-.74-2.59-.96-1.06-.22-2.25-.42-3.55-.61-1.3-.18-2.61-.43-3.91-.74-1.3-.31-2.49-.77-3.55-1.38-1.06-.61-1.93-1.42-2.59-2.45-.66-1.03-.99-2.38-.99-4.07,0-1.87,.53-3.5,1.6-4.87,1.06-1.38,2.56-2.44,4.49-3.19,1.93-.75,4.21-1.13,6.85-1.13,1.98,0,3.98,.22,6,.66,2.02,.44,3.69,1.06,5.01,1.87l-2.64,5.23c-1.4-.84-2.8-1.42-4.21-1.73-1.41-.31-2.82-.47-4.21-.47-2.09,0-3.64,.31-4.65,.94-1.01,.62-1.51,1.41-1.51,2.37,0,.88,.33,1.54,.99,1.98,.66,.44,1.52,.79,2.59,1.05,1.06,.26,2.25,.47,3.55,.63,1.3,.17,2.6,.41,3.88,.74s2.47,.78,3.55,1.35c1.08,.57,1.95,1.37,2.61,2.39,.66,1.03,.99,2.37,.99,4.02,0,1.84-.54,3.43-1.62,4.79-1.08,1.36-2.61,2.41-4.6,3.17s-4.35,1.13-7.1,1.13Z"/><path d="M156.79,27.31v-5.5h19.6v5.5h-19.6Zm14.97,24.05c-3.23,0-5.72-.83-7.49-2.5-1.76-1.67-2.64-4.14-2.64-7.4V15.09h6.88v26.2c0,1.4,.36,2.48,1.07,3.25,.72,.77,1.71,1.16,3,1.16,1.54,0,2.83-.4,3.85-1.21l1.93,4.9c-.81,.66-1.8,1.16-2.97,1.49-1.18,.33-2.39,.5-3.63,.5Z"/><path d="M193.35,51.36c-2.2,0-4.13-.38-5.78-1.13-1.65-.75-2.93-1.8-3.83-3.14-.9-1.34-1.35-2.85-1.35-4.54s.39-3.14,1.18-4.46c.79-1.32,2.08-2.37,3.88-3.14,1.8-.77,4.18-1.16,7.16-1.16h8.53v4.57h-8.04c-2.35,0-3.93,.38-4.73,1.13-.81,.75-1.21,1.68-1.21,2.78,0,1.25,.5,2.24,1.49,2.97,.99,.73,2.37,1.1,4.13,1.1s3.2-.39,4.54-1.16c1.34-.77,2.3-1.91,2.89-3.41l1.16,4.13c-.66,1.73-1.84,3.06-3.55,4.02-1.71,.95-3.86,1.43-6.47,1.43Zm9.25-.39v-5.94l-.39-1.27v-10.4c0-2.02-.61-3.59-1.82-4.71-1.21-1.12-3.05-1.68-5.5-1.68-1.65,0-3.28,.26-4.87,.77-1.6,.51-2.95,1.23-4.05,2.15l-2.7-5.01c1.58-1.21,3.46-2.12,5.64-2.72,2.18-.61,4.45-.91,6.8-.91,4.26,0,7.55,1.02,9.88,3.05,2.33,2.04,3.49,5.18,3.49,9.44v17.23h-6.49Z"/><path d="M216.35,51.36V21.97h6.55v8.09l-.77-2.37c.88-1.98,2.27-3.49,4.16-4.51,1.89-1.03,4.25-1.54,7.07-1.54v6.55c-.29-.07-.57-.12-.83-.14-.26-.02-.51-.03-.77-.03-2.61,0-4.68,.76-6.22,2.28-1.54,1.52-2.31,3.79-2.31,6.8v14.26h-6.88Z"/><path d="M239.23,27.31v-5.5h19.6v5.5h-19.6Zm14.97,24.05c-3.23,0-5.72-.83-7.49-2.5-1.76-1.67-2.64-4.14-2.64-7.4V15.09h6.88v26.2c0,1.4,.36,2.48,1.07,3.25,.72,.77,1.71,1.16,3,1.16,1.54,0,2.83-.4,3.85-1.21l1.93,4.9c-.81,.66-1.8,1.16-2.97,1.49-1.18,.33-2.39,.5-3.63,.5Z"/><path d="M266.19,51.36v-4.79l15.3-14.53c1.28-1.21,2.24-2.28,2.86-3.19,.62-.92,1.04-1.77,1.24-2.56,.2-.79,.3-1.53,.3-2.23,0-1.76-.61-3.13-1.82-4.1-1.21-.97-2.99-1.46-5.34-1.46-1.87,0-3.57,.33-5.09,.99-1.52,.66-2.84,1.67-3.94,3.03l-5.01-3.85c1.5-2.02,3.53-3.59,6.08-4.71,2.55-1.12,5.4-1.68,8.56-1.68,2.79,0,5.22,.45,7.29,1.35,2.07,.9,3.67,2.17,4.79,3.83s1.68,3.61,1.68,5.89c0,1.25-.16,2.49-.49,3.72s-.96,2.52-1.87,3.88-2.26,2.88-4.02,4.57l-13.16,12.49-1.49-2.7h22.51v6.05h-28.4Z"/><path d="M305.25,17.13c-1.29,0-2.34-.4-3.17-1.21-.83-.81-1.24-1.78-1.24-2.92s.41-2.16,1.24-2.95c.83-.79,1.88-1.18,3.17-1.18s2.34,.38,3.16,1.13c.83,.75,1.24,1.7,1.24,2.83,0,1.21-.4,2.23-1.21,3.05s-1.87,1.24-3.19,1.24Zm-3.47,34.24V21.97h6.88v29.39h-6.88Z"/><path d="M353.08,21.64c2.35,0,4.43,.46,6.25,1.38,1.82,.92,3.24,2.32,4.27,4.21,1.03,1.89,1.54,4.32,1.54,7.29v16.84h-6.88v-15.96c0-2.61-.57-4.55-1.71-5.83-1.14-1.28-2.77-1.93-4.9-1.93-1.51,0-2.84,.33-3.99,.99-1.16,.66-2.06,1.63-2.7,2.92-.64,1.28-.96,2.92-.96,4.9v14.92h-6.88v-15.96c0-2.61-.57-4.55-1.71-5.83-1.14-1.28-2.77-1.93-4.9-1.93-1.5,0-2.83,.33-3.99,.99-1.16,.66-2.05,1.63-2.7,2.92-.64,1.28-.96,2.92-.96,4.9v14.92h-6.88V21.97h6.55v7.82l-1.16-2.31c.99-1.91,2.43-3.36,4.32-4.35,1.89-.99,4.05-1.49,6.47-1.49,2.75,0,5.15,.68,7.18,2.04s3.39,3.41,4.05,6.16l-2.7-.94c.95-2.2,2.53-3.96,4.73-5.28,2.2-1.32,4.75-1.98,7.65-1.98Z"/><path d="M372.38,62.04V21.97h6.55v6.94l-.22,7.82,.55,7.82v17.5h-6.88Zm16.29-10.29c-2.38,0-4.56-.55-6.52-1.65-1.96-1.1-3.52-2.76-4.68-4.98-1.16-2.22-1.73-5.04-1.73-8.45s.56-6.27,1.68-8.48c1.12-2.2,2.65-3.84,4.6-4.93,1.94-1.08,4.16-1.62,6.66-1.62,2.9,0,5.46,.62,7.68,1.87,2.22,1.25,3.98,2.99,5.28,5.23,1.3,2.24,1.95,4.88,1.95,7.93s-.65,5.7-1.95,7.95c-1.3,2.26-3.06,4.01-5.28,5.26-2.22,1.25-4.78,1.87-7.68,1.87Zm-.77-5.89c1.65,0,3.13-.37,4.43-1.1,1.3-.73,2.34-1.8,3.11-3.19,.77-1.39,1.16-3.03,1.16-4.9s-.39-3.55-1.16-4.93c-.77-1.38-1.81-2.43-3.11-3.16-1.3-.73-2.78-1.1-4.43-1.1s-3.14,.37-4.46,1.1c-1.32,.73-2.37,1.79-3.14,3.16-.77,1.38-1.16,3.02-1.16,4.93s.39,3.51,1.16,4.9c.77,1.4,1.82,2.46,3.14,3.19,1.32,.73,2.81,1.1,4.46,1.1Z"/><path d="M419.06,51.36c-2.2,0-4.13-.38-5.78-1.13-1.65-.75-2.93-1.8-3.83-3.14-.9-1.34-1.35-2.85-1.35-4.54s.39-3.14,1.18-4.46c.79-1.32,2.08-2.37,3.88-3.14,1.8-.77,4.18-1.16,7.16-1.16h8.53v4.57h-8.04c-2.35,0-3.93,.38-4.73,1.13-.81,.75-1.21,1.68-1.21,2.78,0,1.25,.5,2.24,1.49,2.97,.99,.73,2.37,1.1,4.13,1.1s3.2-.39,4.54-1.16c1.34-.77,2.3-1.91,2.89-3.41l1.16,4.13c-.66,1.73-1.84,3.06-3.55,4.02-1.71,.95-3.86,1.43-6.47,1.43Zm9.25-.39v-5.94l-.39-1.27v-10.4c0-2.02-.61-3.59-1.82-4.71-1.21-1.12-3.05-1.68-5.5-1.68-1.65,0-3.28,.26-4.87,.77-1.6,.51-2.95,1.23-4.05,2.15l-2.7-5.01c1.58-1.21,3.46-2.12,5.64-2.72s4.45-.91,6.8-.91c4.26,0,7.55,1.02,9.88,3.05,2.33,2.04,3.49,5.18,3.49,9.44v17.23h-6.49Z"/><path d="M455.23,51.36c-3.08,0-5.83-.65-8.23-1.95-2.4-1.3-4.29-3.09-5.64-5.37-1.36-2.28-2.04-4.86-2.04-7.76s.68-5.53,2.04-7.79c1.36-2.26,3.24-4.03,5.64-5.31,2.4-1.28,5.15-1.93,8.23-1.93,2.86,0,5.38,.58,7.57,1.73,2.18,1.16,3.84,2.85,4.98,5.09l-5.28,3.08c-.88-1.39-1.95-2.42-3.22-3.08s-2.63-.99-4.1-.99c-1.69,0-3.21,.37-4.57,1.1-1.36,.73-2.42,1.79-3.19,3.16-.77,1.38-1.16,3.02-1.16,4.93s.39,3.55,1.16,4.93c.77,1.38,1.84,2.43,3.19,3.17,1.36,.73,2.88,1.1,4.57,1.1,1.47,0,2.83-.33,4.1-.99s2.34-1.69,3.22-3.08l5.28,3.08c-1.14,2.2-2.8,3.9-4.98,5.09-2.18,1.19-4.7,1.79-7.57,1.79Z"/><path d="M470.94,27.31v-5.5h19.6v5.5h-19.6Zm14.97,24.05c-3.23,0-5.72-.83-7.49-2.5-1.76-1.67-2.64-4.14-2.64-7.4V15.09h6.88v26.2c0,1.4,.36,2.48,1.07,3.25,.72,.77,1.71,1.16,3,1.16,1.54,0,2.83-.4,3.85-1.21l1.93,4.9c-.81,.66-1.8,1.16-2.97,1.49-1.18,.33-2.39,.5-3.63,.5Z"/></g><g><path d="M137.02,87.63c-2.45,0-4.37-.68-5.75-2.05-1.38-1.37-2.07-3.32-2.07-5.85v-9.68h4v9.53c0,1.65,.34,2.83,1.01,3.56,.67,.72,1.62,1.09,2.84,1.09s2.17-.36,2.84-1.09c.68-.72,1.01-1.91,1.01-3.56v-9.53h3.95v9.68c0,2.54-.69,4.49-2.07,5.85s-3.3,2.05-5.76,2.05Z"/><path d="M171.93,87.63v-17.29h3.31l10.2,12.45h-1.61v-12.45h3.95v17.29h-3.29l-10.23-12.45h1.61v12.45h-3.95Z"/><path d="M215,87.63v-17.29h4v17.29h-4Z"/><path d="M251.32,87.63l-7.46-17.29h4.32l6.52,15.31h-2.54l6.62-15.31h3.98l-7.48,17.29h-3.95Z"/><path d="M291.28,84.42h9.41v3.21h-13.39v-17.29h13.07v3.21h-9.09v10.87Zm-.3-7.11h8.32v3.11h-8.32v-3.11Z"/><path d="M327,87.63v-17.29h7.48c1.55,0,2.88,.25,4,.75,1.12,.5,1.98,1.22,2.59,2.16,.61,.94,.91,2.06,.91,3.36s-.3,2.39-.91,3.32c-.61,.93-1.47,1.64-2.59,2.14s-2.45,.74-4,.74h-5.26l1.78-1.75v6.57h-4Zm4-6.13l-1.78-1.88h5.04c1.23,0,2.16-.27,2.77-.8,.61-.54,.91-1.27,.91-2.21s-.3-1.7-.91-2.22c-.61-.53-1.53-.79-2.77-.79h-5.04l1.78-1.9v9.81Zm6.99,6.13l-4.32-6.27h4.27l4.37,6.27h-4.32Z"/><path d="M373.95,87.63c-1.38,0-2.71-.19-3.98-.56-1.27-.37-2.29-.85-3.06-1.45l1.36-3.01c.74,.53,1.62,.96,2.63,1.3,1.01,.34,2.04,.51,3.08,.51,.79,0,1.43-.08,1.91-.23,.49-.16,.84-.37,1.07-.65s.35-.6,.35-.96c0-.46-.18-.83-.54-1.1-.36-.27-.84-.49-1.43-.67-.59-.17-1.25-.34-1.96-.49-.72-.16-1.43-.35-2.15-.58-.72-.23-1.37-.53-1.96-.89-.59-.36-1.07-.84-1.44-1.43-.37-.59-.56-1.35-.56-2.27,0-.99,.27-1.89,.8-2.71,.53-.81,1.34-1.47,2.42-1.95s2.43-.73,4.06-.73c1.09,0,2.16,.13,3.21,.38,1.05,.26,1.98,.64,2.79,1.15l-1.23,3.04c-.81-.46-1.61-.8-2.42-1.03s-1.6-.33-2.37-.33-1.41,.09-1.9,.27c-.49,.18-.85,.42-1.06,.7-.21,.29-.32,.62-.32,1,0,.44,.18,.8,.54,1.07,.36,.27,.84,.49,1.43,.66,.59,.16,1.25,.33,1.96,.49,.72,.17,1.43,.35,2.15,.57,.72,.21,1.37,.5,1.96,.86,.59,.36,1.07,.84,1.44,1.43s.56,1.34,.56,2.25c0,.97-.27,1.86-.81,2.67-.54,.81-1.36,1.46-2.43,1.95s-2.44,.74-4.09,.74Z"/><path d="M407.15,87.63v-17.29h4v17.29h-4Z"/><path d="M441.96,87.63v-14.03h-5.53v-3.26h15.07v3.26h-5.53v14.03h-4Z"/><path d="M480.74,87.63v-7.06l.91,2.42-7.61-12.65h4.25l5.83,9.71h-2.44l5.85-9.71h3.93l-7.61,12.65,.89-2.42v7.06h-4Z"/></g><g><path d="M47.14,70.97c-.15-.54-.35-1.06-.54-1.59-4.23,3.68-9.73,5.9-15.64,5.9-.07,0-.12-.02-.2-.02-1.38-.02-2.75-.16-4.08-.39-11.11-2.02-19.58-11.77-19.58-23.45,0-8.22,4.31-15.71,10.94-20.02,0-.14-.02-.3-.02-.44,0-2.79,.37-5.49,1.01-8.09C7.74,27.62,0,38.88,0,51.43s7.44,23.22,18.09,28.12c.59,.27,1.17,.51,1.78,.75,.6,.23,1.19,.46,1.79,.66,2.54,.8,5.24,1.26,8.02,1.37,.43,.02,.83,.07,1.28,.07,.14,0,.3-.02,.46-.04,.57,0,1.14-.04,1.7-.07,6.84-.48,13.17-3.22,18.14-7.54-1.98-.33-3.59-1.76-4.13-3.77Z" style="fill:url(#c);"/><path d="M75.27,72.55v.18c-.02,1.4-.16,2.75-.41,4.1-2.02,11.11-11.75,19.56-23.43,19.56-8.22,0-15.71-4.3-20.02-10.94-.16,.02-.3,.04-.44,.04-2.8,0-5.5-.39-8.09-1.01,4.76,11.27,16.01,19.01,28.56,19.01s23.2-7.42,28.1-18.07c.27-.59,.53-1.19,.76-1.79,.21-.59,.46-1.17,.64-1.79,.82-2.54,1.26-5.24,1.38-8.02,.02-.43,.05-.83,.05-1.26,0-.16-.02-.32-.02-.48,0-.57-.04-1.14-.07-1.69-.76-10.68-7.03-20.1-16.18-25.06l-2.36,6.8c6.97,4.23,11.53,11.91,11.53,20.43Z" style="fill:url(#d);"/><path d="M85.4,23.97c-.59-.27-1.17-.51-1.79-.76-.59-.21-1.17-.46-1.78-.64-2.56-.82-5.25-1.26-8.02-1.37-.43-.02-.85-.07-1.28-.07-.16,0-.3,.02-.46,.02-.57,.02-1.14,.04-1.7,.07-12.57,.9-23.41,9.44-27.27,21.34l9.3-3.23c4.28-6.73,11.81-11.1,20.14-11.1h.18c1.4,.02,2.77,.16,4.1,.41,11.11,2.02,19.58,11.75,19.58,23.45,0,8.2-4.31,15.69-10.94,20.01,0,.16,.02,.3,.02,.46,0,2.79-.37,5.49-1.01,8.08,11.29-4.74,19.03-16.01,19.03-28.55s-7.44-23.22-18.09-28.12Z" style="fill:url(#e);"/><path d="M32.13,46.37l1.38-.48c-3.32-4.13-5.28-9.35-5.28-14.93v-.18c.02-1.4,.16-2.77,.39-4.1,2.02-11.11,11.77-19.58,23.45-19.58,8.22,0,15.71,4.31,20.02,10.94,.14,0,.3-.02,.44-.02,2.79,0,5.49,.37,8.09,1.01C75.87,7.74,64.62,0,52.07,0S28.85,7.44,23.97,18.09c-.28,.59-.53,1.17-.76,1.79-.23,.59-.46,1.17-.66,1.78-.8,2.56-1.24,5.25-1.37,8.04-.02,.41-.05,.83-.05,1.26,0,.16,.02,.3,.02,.46,0,.57,.04,1.14,.07,1.7,.48,6.78,3.19,13.05,7.43,18,.06-2.15,1.42-4.04,3.48-4.76Z" style="fill:url(#f);"/><path d="M43.96,59.5c3.08,3.06,5.15,6.75,6.21,10.66,.54,1.99,3.33,2.07,4,.12l9.68-28.08c.57-1.66-1.02-3.25-2.68-2.67l-28.04,9.81c-1.95,.68-1.85,3.46,.14,4,3.91,1.05,7.61,3.1,10.69,6.16Z" style="fill:url(#g);"/></g></g></g></svg>